<svg xmlns="http://www.w3.org/2000/svg" viewBox="0 0 512 512" width="512" height="512">
  <rect width="512" height="512" fill="#000000"/>
  <path d="M364.8,170.7h-25.6v-25.6c0-14.1-11.5-25.6-25.6-25.6h-25.6c-14.1,0-25.6,11.5-25.6,25.6v25.6h-51.2v-25.6
    c0-14.1-11.5-25.6-25.6-25.6H160c-14.1,0-25.6,11.5-25.6,25.6v25.6h-25.6c-14.1,0-25.6,11.5-25.6,25.6v119.5
    c0,14.1,11.5,25.6,25.6,25.6h25.6v25.6c0,14.1,11.5,25.6,25.6,25.6h25.6c14.1,0,25.6-11.5,25.6-25.6v-25.6h51.2v25.6
    c0,14.1,11.5,25.6,25.6,25.6h25.6c14.1,0,25.6-11.5,25.6-25.6v-25.6h25.6c14.1,0,25.6-11.5,25.6-25.6V196.3
    C390.4,182.2,378.9,170.7,364.8,170.7z M364.8,315.7h-51.2v51.2h-25.6v-51.2h-102.4v51.2H160v-51.2h-51.2V196.3H160v-51.2h25.6
    v51.2h102.4v-51.2h25.6v51.2h51.2V315.7z" fill="#FFFFFF"/>
</svg> 